<?xml version="1.0" standalone="no"?>
<!DOCTYPE svg PUBLIC "-//W3C//DTD SVG 20010904//EN"
 "http://www.w3.org/TR/2001/REC-SVG-20010904/DTD/svg10.dtd">
<svg version="1.0" xmlns="http://www.w3.org/2000/svg"
 width="700.000000pt" height="700.000000pt" viewBox="0 0 700.000000 700.000000"
 preserveAspectRatio="xMidYMid meet">
<metadata>
Created by potrace 1.14, written by Peter Selinger 2001-2017
</metadata>
<g transform="translate(0.000000,700.000000) scale(0.100000,-0.100000)"
fill="#000000" stroke="none">
<path d="M2552 6987 c-45 -17 -98 -61 -119 -100 -14 -25 -19 -65 -23 -177 l-5
-145 -690 -5 c-618 -4 -693 -7 -720 -22 -38 -21 -77 -63 -101 -108 -18 -34
-19 -130 -19 -3150 l0 -3115 22 -42 c27 -50 86 -100 133 -113 50 -14 4892 -13
4943 1 47 13 102 60 130 113 21 40 22 53 25 393 l4 351 351 4 c341 3 353 4
394 25 50 27 100 86 113 133 14 49 13 954 -1 1004 -6 21 -29 58 -51 82 -65 71
-86 74 -475 74 l-333 0 -2 2103 c-3 2029 -4 2103 -22 2137 -24 45 -63 87 -101
108 -27 15 -102 18 -720 22 l-690 5 -5 145 c-6 162 -14 187 -75 238 -20 16
-53 34 -74 41 -55 16 -1843 14 -1889 -2z m1606 -644 l-3 -218 -655 0 -655 0
-3 218 -2 217 660 0 660 0 -2 -217z m-1748 -353 c0 -143 10 -182 58 -234 15
-16 45 -37 67 -47 38 -18 86 -19 963 -19 1009 0 961 -3 1026 58 54 51 66 93
66 240 l0 132 550 0 550 0 0 -1965 0 -1965 -1232 -2 -1233 -3 -568 -229 c-312
-125 -582 -238 -600 -250 -18 -12 -44 -45 -59 -75 -47 -92 -33 -179 39 -253
32 -33 103 -64 617 -270 l581 -233 1228 -3 1227 -2 0 -215 0 -215 -2190 0
-2190 0 0 2840 0 2840 550 0 550 0 0 -130z m4150 -4460 l0 -220 -1530 0 -1530
0 0 220 0 220 1530 0 1530 0 0 -220z m-3500 -1 c0 -61 -4 -109 -9 -107 -133
51 -261 104 -261 109 0 5 246 107 263 108 4 1 7 -49 7 -110z"/>
<path d="M1750 4810 l0 -220 1750 0 1750 0 0 220 0 220 -1750 0 -1750 0 0
-220z"/>
<path d="M1750 3940 l0 -220 1750 0 1750 0 0 220 0 220 -1750 0 -1750 0 0
-220z"/>
<path d="M1750 3060 l0 -220 1750 0 1750 0 0 220 0 220 -1750 0 -1750 0 0
-220z"/>
</g>
</svg>
