<?xml version="1.0" standalone="no"?>
<!DOCTYPE svg PUBLIC "-//W3C//DTD SVG 20010904//EN"
 "http://www.w3.org/TR/2001/REC-SVG-20010904/DTD/svg10.dtd">
<svg version="1.0" xmlns="http://www.w3.org/2000/svg"
 width="700.000000pt" height="700.000000pt" viewBox="0 0 700.000000 700.000000"
 preserveAspectRatio="xMidYMid meet">
<metadata>
Created by potrace 1.14, written by Peter Selinger 2001-2017
</metadata>
<g transform="translate(0.000000,700.000000) scale(0.100000,-0.100000)"
fill="#000000" stroke="none">
<path d="M802 6987 c-45 -17 -98 -61 -119 -100 -16 -28 -19 -74 -23 -397 l-5
-365 -69 -7 c-152 -15 -271 -73 -386 -188 -92 -91 -133 -157 -171 -275 -31
-92 -33 -269 -5 -360 83 -273 293 -445 584 -480 l52 -7 0 -323 0 -323 -22 -6
c-13 -3 -37 -6 -53 -6 -52 0 -177 -40 -245 -77 -101 -56 -218 -179 -269 -283
-135 -277 -68 -596 167 -793 93 -78 255 -147 347 -147 16 0 40 -3 52 -6 l23
-6 0 -323 0 -324 -57 -6 c-236 -26 -430 -160 -534 -370 -91 -185 -91 -385 0
-570 102 -205 294 -341 514 -363 l72 -7 5 -365 c4 -321 7 -369 22 -397 23 -42
80 -88 127 -102 28 -8 817 -11 3029 -11 l2990 0 53 28 c39 20 62 41 84 77 l30
48 0 3347 0 3347 -30 48 c-22 36 -45 57 -84 77 l-53 28 -2997 -1 c-2279 0
-3004 -3 -3029 -12z m1388 -3487 l0 -3060 -550 0 -550 0 2 218 3 217 69 7
c373 37 643 395 575 764 -53 292 -285 503 -591 539 l-58 6 0 324 0 323 23 6
c12 3 36 6 52 6 46 0 143 27 210 59 223 105 375 344 375 591 0 247 -152 486
-375 591 -67 32 -164 59 -210 59 -16 0 -40 3 -52 6 l-23 6 0 323 0 324 58 6
c239 28 427 155 527 357 25 51 52 125 60 163 79 378 -189 745 -571 783 l-69 7
-3 218 -2 217 550 0 550 0 0 -3060z m4370 0 l0 -3060 -1965 0 -1965 0 0 3060
0 3060 1965 0 1965 0 0 -3060z m-5355 2155 c71 -44 108 -117 103 -202 -5 -83
-42 -137 -117 -175 l-55 -28 -254 0 c-276 0 -309 5 -366 51 -99 82 -101 235
-4 327 60 57 92 62 384 59 l261 -2 48 -30z m-2 -1968 c26 -15 60 -47 75 -69
23 -36 27 -51 27 -118 0 -67 -4 -82 -27 -118 -15 -22 -49 -54 -75 -69 l-48
-28 -280 0 -280 0 -48 28 c-101 60 -135 175 -83 282 15 30 41 64 58 76 64 46
87 49 368 46 l265 -2 48 -28z m-42 -1948 c173 -52 201 -297 44 -394 l-48 -30
-281 0 -281 0 -48 28 c-64 38 -107 111 -107 185 0 94 49 167 140 206 44 19
520 23 581 5z"/>
<path d="M3060 1970 l0 -220 1535 0 1535 0 -2 218 -3 217 -1532 3 -1533 2 0
-220z"/>
<path d="M3062 1093 l3 -218 1530 0 1530 0 3 218 2 217 -1535 0 -1535 0 2
-217z"/>
</g>
</svg>
